<?xml version="1.0" standalone="no"?>
<!DOCTYPE svg PUBLIC "-//W3C//DTD SVG 20010904//EN"
 "http://www.w3.org/TR/2001/REC-SVG-20010904/DTD/svg10.dtd">
<svg version="1.0" xmlns="http://www.w3.org/2000/svg"
 width="587.000000pt" height="587.000000pt" viewBox="0 0 587.000000 587.000000"
 preserveAspectRatio="xMidYMid meet">
<metadata>
Created by potrace 1.11, written by Peter Selinger 2001-2013
</metadata>
<g transform="translate(0.000000,587.000000) scale(0.100000,-0.100000)"
fill="#000000" stroke="none">
<path d="M0 2935 l0 -2935 2935 0 2935 0 0 2935 0 2935 -2935 0 -2935 0 0
-2935z m5486 1970 c59 -17 104 -58 133 -120 21 -45 21 -47 21 -1227 0 -966 -3
-1200 -14 -1273 -44 -277 -171 -530 -366 -726 -189 -190 -392 -301 -650 -356
-121 -26 -439 -26 -560 0 -272 58 -452 157 -651 356 -205 206 -319 433 -365
726 -25 163 -13 438 27 580 32 116 62 202 99 276 178 361 497 605 870 665 110
18 313 18 417 0 246 -44 485 -172 648 -348 l65 -70 0 675 c0 636 1 678 19 719
48 113 173 163 307 123z m-3766 -1114 c160 -36 266 -81 397 -168 108 -72 256
-211 282 -266 39 -80 23 -165 -40 -226 -52 -49 -88 -64 -154 -65 -75 0 -116
21 -210 110 -167 157 -352 222 -599 211 -211 -9 -365 -72 -508 -206 -70 -66
-98 -101 -162 -204 -80 -130 -124 -414 -97 -622 17 -127 74 -292 131 -379 75
-115 191 -221 305 -279 132 -67 335 -102 488 -86 179 19 288 58 427 153 45 31
101 61 123 67 163 44 325 -126 263 -274 -25 -62 -174 -177 -323 -251 -168 -83
-365 -126 -584 -126 -399 0 -744 152 -992 437 -149 172 -240 364 -288 613 -29
145 -28 401 0 550 54 278 165 495 344 673 205 203 494 337 782 361 104 8 330
-4 415 -23z"/>
<path d="M4171 3379 c-249 -49 -472 -220 -588 -454 -66 -131 -93 -254 -93
-419 0 -236 55 -405 190 -585 121 -160 289 -261 507 -302 81 -15 289 -6 368
15 224 62 404 213 517 432 76 146 93 227 93 434 0 152 -3 186 -23 260 -27 99
-96 237 -159 318 -111 144 -293 258 -476 297 -74 16 -263 18 -336 4z"/>
</g>
</svg>
